# xmcd CD database file
# Copyright (C) 1993-1996 Ti Kan
#
# Track frame offsets:
# 150
# 12705
# 27863
# 41015
# 53718
# 68565
# 81065
# 97113
# 110845
# 126438
# 154935
# 172678
# 204360
# 224308
# 239513
#
# Disc length: 3369 seconds
# Revision: 0
# Processed by: cddbd v1.4b41PL1 Copyright (c) Steve Scherf et al.
# Submitted via: CDSpectrumPro v3.2.327
#
DISCID=cf0d270f
DTITLE=Big Guitars from Memphis - Big Guitars from Memphis
DYEAR=1900
DGENRE=
TTITLE0=Big Guitars
TTITLE1=Fountain of youth
TTITLE2=It's so easy
TTITLE3=Honey
TTITLE4=I will
TTITLE5=Lately
TTITLE6=Tonight alone
TTITLE7=Business as usual
TTITLE8=Sinkin' in a Sea of Love
TTITLE9=Millionaire
TTITLE10=Workin' Man
TTITLE11=Ring of Fire - Poison Love
TTITLE12=Sixteen Tons
TTITLE13=One Eye open
TTITLE14=Viva Las Vegas
EXTD=
EXTT0=
EXTT1=
EXTT2=
EXTT3=
EXTT4=
EXTT5=
EXTT6=
EXTT7=
EXTT8=
EXTT9=
EXTT10=
EXTT11=
EXTT12=
EXTT13=
EXTT14=
PLAYORDER=
